<?xml version="1.0" encoding="utf-8"?>
<!-- Generator: Adobe Illustrator 27.2.0, SVG Export Plug-In . SVG Version: 6.00 Build 0)  -->
<svg version="1.1" id="Layer_1" xmlns="http://www.w3.org/2000/svg" xmlns:xlink="http://www.w3.org/1999/xlink" x="0px" y="0px"
	 viewBox="0 0 13.9 13" style="enable-background:new 0 0 13.9 13;" xml:space="preserve">
<style type="text/css">
	.st0{fill:#FFFFFF;}
</style>
<path class="st0" d="M12.7,13H1.3C0.6,13,0,12.5,0,11.8V1.3C0,0.6,0.6,0,1.3,0h11.4c0.7,0,1.3,0.6,1.3,1.3v10.5
	C13.9,12.5,13.4,13,12.7,13z"/>
<path d="M11.4,6.5c0,0.3-0.2,0.5-0.5,0.5H7.4v3.5c0,0.3-0.2,0.5-0.5,0.5s-0.5-0.2-0.5-0.5l0,0V7H3C2.8,7,2.6,6.8,2.6,6.5
	S2.8,6.1,3,6.1h3.5V2.6c0-0.3,0.2-0.5,0.5-0.5s0.5,0.2,0.5,0.5v3.5h3.5C11.2,6.1,11.4,6.3,11.4,6.5z"/>
</svg>
